<svg width="32" height="32" viewBox="0 0 32 32" fill="none" xmlns="http://www.w3.org/2000/svg">
<path d="M12.7271 26.9091C13.3296 26.9091 13.818 26.4207 13.818 25.8182C13.818 25.2157 13.3296 24.7273 12.7271 24.7273C12.1246 24.7273 11.6362 25.2157 11.6362 25.8182C11.6362 26.4207 12.1246 26.9091 12.7271 26.9091Z" stroke="white" stroke-width="2" stroke-linecap="round" stroke-linejoin="round"/>
<path d="M24.7271 26.9091C25.3296 26.9091 25.818 26.4207 25.818 25.8182C25.818 25.2157 25.3296 24.7273 24.7271 24.7273C24.1246 24.7273 23.6362 25.2157 23.6362 25.8182C23.6362 26.4207 24.1246 26.9091 24.7271 26.9091Z" stroke="white" stroke-width="2" stroke-linecap="round" stroke-linejoin="round"/>
<path d="M4 4H8.36364L11.2873 18.6073C11.387 19.1095 11.6603 19.5607 12.0591 19.8818C12.458 20.2029 12.9571 20.3734 13.4691 20.3636H24.0727C24.5847 20.3734 25.0838 20.2029 25.4827 19.8818C25.8816 19.5607 26.1548 19.1095 26.2545 18.6073L28 9.45455H9.45455" stroke="white" stroke-width="2" stroke-linecap="round" stroke-linejoin="round"/>
</svg>
