<svg width="136" height="93" viewBox="0 0 136 93" fill="none" xmlns="http://www.w3.org/2000/svg">
<g clip-path="url(#clip0_2066_137840)">
<path d="M39.9813 25.8738L38.673 28.5094C37.4301 27.5319 35.778 26.8671 34.5054 26.8592C33.0746 26.8513 31.9384 27.2978 31.0471 28.1731C30.1579 29.0503 29.7192 30.2225 29.7113 31.6681C29.7033 33.1374 30.1282 34.3135 30.9859 35.1986C31.8652 36.0837 33.0213 36.5203 34.452 36.5282C35.7227 36.5361 37.3826 35.9126 38.6375 34.9252L39.916 37.5745C39.0722 38.1803 38.1395 38.672 37.0941 39.0497C36.0705 39.4273 35.0943 39.6043 34.2089 39.5984C31.8949 39.5866 30.0373 38.853 28.6362 37.3995C27.2371 35.946 26.5435 34.0224 26.5573 31.6504C26.5712 29.2784 27.2846 27.3627 28.6995 25.925C30.1144 24.4872 31.9799 23.7752 34.2959 23.787C36.0428 23.7968 38.3312 24.6229 39.9813 25.8738Z" fill="white"/>
<path d="M43.3013 37.2362C42.003 35.7119 41.4042 33.7883 41.505 31.4183C41.6058 29.0482 42.3666 27.1817 43.7875 25.8167C45.2103 24.4301 47.0303 23.783 49.2535 23.8774C51.4529 23.9699 53.2137 24.7684 54.512 26.2691C55.8123 27.7482 56.4111 29.6717 56.334 32.0437C56.2569 34.4138 55.4961 36.2823 54.0733 37.6905C52.6505 39.0772 50.8304 39.7242 48.5836 39.6298C46.3624 39.5374 44.6016 38.7389 43.3013 37.2382V37.2362ZM51.7177 35.352C52.5023 34.5023 52.9153 33.3674 52.9765 31.9454C53.0378 30.4781 52.7256 29.3118 52.0141 28.4012C51.3027 27.4905 50.3483 26.9968 49.1448 26.9693C46.6924 26.9339 44.9811 28.7394 44.8585 31.6051C44.7993 33.0272 45.1115 34.1935 45.8229 35.1041C46.5343 36.0148 47.5125 36.4868 48.7377 36.538C49.9392 36.5891 50.9332 36.2016 51.7177 35.352Z" fill="white"/>
<path d="M59.1382 39.5079V24.438H64.9935C66.606 24.438 67.8767 24.912 68.8529 25.8384C69.8291 26.7648 70.3054 27.9842 70.3054 29.4987C70.3054 31.5088 69.3746 33.0921 67.7641 33.9044L70.8508 39.5079H67.4005L64.7663 34.6046H62.3139V39.5079H59.1362H59.1382ZM62.3158 31.6681H64.8354C66.1752 31.6681 67.0151 30.7869 67.0151 29.4987C67.0151 28.234 66.1298 27.3745 64.8354 27.3745H62.3158V31.6681Z" fill="white"/>
<path d="M83.0374 24.4263L82.6995 27.4532H78.9764L78.9843 39.4962H75.8067L75.7988 27.4572H71.7359L71.7339 24.4322L83.0374 24.4243V24.4263Z" fill="white"/>
<path d="M89.0448 36.5675L95.5147 36.5714L95.24 39.5079L85.8652 39.502L85.8751 24.4341L95.2499 24.44V27.3765L89.0508 27.3725V30.6041L94.7006 30.608V33.3871L89.0468 33.3832V36.5695L89.0448 36.5675Z" fill="white"/>
<path d="M97.9551 38.2845L99.0637 35.4699C100.791 36.3786 102.471 36.7916 104.081 36.713C105.419 36.6461 106.16 36.0206 106.109 35.0057C106.065 34.1266 105.292 33.6899 103.749 33.2926L102.208 32.917C99.7909 32.3131 98.3088 30.8714 98.1962 28.6155C98.131 27.3075 98.5538 26.2218 99.4431 25.3859C100.354 24.5264 101.581 24.0583 103.144 23.9796C104.777 23.897 106.545 24.2845 108.452 25.1401L107.358 27.7501C106.008 27.1384 104.745 26.863 103.565 26.922C102.206 26.9909 101.417 27.5947 101.463 28.4975C101.498 29.2193 102.139 29.7543 103.36 30.0768L104.923 30.4505C107.824 31.1881 109.328 32.6278 109.434 34.7264C109.587 37.7278 107.678 39.5629 104.21 39.7379C102.17 39.8402 100.077 39.3564 97.9551 38.2864V38.2845Z" fill="white"/>
<path d="M43.809 57.7721H49.6643L49.3916 60.7105H40.6313L40.6353 45.6426H43.8129L43.811 57.774L43.809 57.7721Z" fill="white"/>
<path d="M78.9193 47.157L77.611 49.7926C76.3681 48.8151 74.716 48.1503 73.4434 48.1424C72.0126 48.1345 70.8764 48.581 69.9851 49.4563C69.0959 50.3335 68.6572 51.5057 68.6492 52.9513C68.6413 54.4206 69.0662 55.5967 69.9239 56.4818C70.8032 57.3669 71.9593 57.8035 73.39 57.8114C74.6607 57.8193 76.3206 57.1958 77.5755 56.2084L78.854 58.8578C78.0102 59.4635 77.0775 59.9552 76.0321 60.3329C75.0085 60.7105 74.0323 60.8875 73.1469 60.8816C70.8329 60.8698 68.9753 60.1362 67.5742 58.6827C66.1751 57.2292 65.4815 55.3056 65.4953 52.9336C65.5092 50.5616 66.2225 48.6459 67.6375 47.2082C69.0524 45.7704 70.9179 45.0584 73.2339 45.0702C74.9808 45.08 77.2692 45.9061 78.9193 47.157Z" fill="white"/>
<path d="M96.647 58.482C95.3487 56.9577 94.75 55.0342 94.8507 52.6641C94.9515 50.2941 95.7123 48.4276 97.1332 47.0626C98.556 45.676 100.376 45.0289 102.599 45.1233C104.799 45.2157 106.559 46.0143 107.858 47.515C109.158 48.994 109.757 50.9176 109.68 53.2896C109.603 55.6596 108.842 57.5281 107.419 58.9364C105.996 60.323 104.176 60.9701 101.929 60.8757C99.7081 60.7832 97.9473 59.9847 96.647 58.484V58.482ZM105.063 56.5978C105.848 55.7481 106.261 54.6133 106.322 53.1912C106.383 51.724 106.071 50.5576 105.36 49.647C104.648 48.7364 103.694 48.2427 102.49 48.2151C100.038 48.1797 98.3268 49.9853 98.2042 52.851C98.145 54.273 98.4572 55.4393 99.1686 56.35C99.88 57.2606 100.858 57.7327 102.083 57.7838C103.285 57.835 104.279 57.4475 105.063 56.5978Z" fill="white"/>
<path d="M93.118 45.6702L92.7801 48.6971H89.057L89.0649 60.7401H85.8873L85.8794 48.7011H81.8164L81.8145 45.6761L93.118 45.6682V45.6702Z" fill="white"/>
<path d="M30.5453 57.7682L37.0152 57.7721L36.7405 60.7086L27.3657 60.7027L27.3756 45.6348L36.7504 45.6407V48.5772L30.5513 48.5732V51.8047L36.201 51.8087V54.5878L30.5473 54.5839V57.7702L30.5453 57.7682Z" fill="white"/>
<path d="M55.8935 57.7838L62.3634 57.7878L62.0887 60.7242L52.7139 60.7183L52.7237 45.6504L62.0986 45.6563V48.5928L55.8994 48.5888V51.8204L61.5492 51.8243V54.6034L55.8955 54.5995V57.7858L55.8935 57.7838Z" fill="white"/>
<path d="M12.2363 59.4341L13.3449 56.6196C15.0721 57.5282 16.7518 57.9413 18.3624 57.8626C19.7002 57.7957 20.4413 57.1703 20.3899 56.1554C20.3464 55.2762 19.5737 54.8396 18.0304 54.4423L16.489 54.0666C14.0722 53.4628 12.5901 52.0211 12.4774 49.7651C12.4122 48.4572 12.8351 47.3715 13.7244 46.5356C14.6354 45.6761 15.8625 45.208 17.4257 45.1293C19.058 45.0467 20.8266 45.4342 22.7336 46.2897L21.6388 48.8997C20.2891 48.288 19.0263 48.0127 17.8466 48.0717C16.487 48.1405 15.6985 48.7443 15.744 49.6471C15.7795 50.369 16.4198 50.9039 17.6411 51.2265L19.2042 51.6002C22.1052 52.3378 23.609 53.7775 23.7157 55.8761C23.8679 58.8775 21.9589 60.7126 18.4908 60.8876C16.4514 60.9899 14.3587 60.506 12.2363 59.4361V59.4341Z" fill="white"/>
<path d="M112.276 59.4517L113.385 56.6371C115.112 57.5458 116.792 57.9589 118.402 57.8802C119.74 57.8133 120.481 57.1879 120.43 56.173C120.386 55.2938 119.614 54.8572 118.07 54.4599L116.529 54.0842C114.112 53.4804 112.63 52.0387 112.517 49.7827C112.452 48.4748 112.875 47.3891 113.764 46.5532C114.675 45.6937 115.903 45.2255 117.466 45.1469C119.098 45.0643 120.867 45.4517 122.774 46.3073L121.679 48.9173C120.329 48.3056 119.066 48.0303 117.887 48.0893C116.527 48.1581 115.739 48.7619 115.784 49.6647C115.82 50.3865 116.46 50.9215 117.681 51.2441L119.244 51.6178C122.145 52.3553 123.649 53.7951 123.756 55.8937C123.908 58.8951 121.999 60.7301 118.531 60.9052C116.491 61.0075 114.399 60.5236 112.276 59.4537V59.4517Z" fill="white"/>
<path d="M67.8608 3.03687L3.46631 22.7977V70.82L38.3946 81.4921L38.4598 81.0319L3.92873 70.4798V23.136L67.8608 3.51677L132.072 23.138V70.4837L96.0465 81.5393C96.1394 81.6632 96.2283 81.795 96.3133 81.9366L132.532 70.822V22.7977L67.8608 3.03687Z" fill="white"/>
<path d="M134.666 20.4138L68.412 0.169148L67.8567 0L67.3014 0.171115L1.33192 20.4158L0 20.8249V72.7986L1.3339 73.2057L37.9854 84.4049L38.2502 82.5187L1.88919 71.408V22.2115L67.8587 1.96684L134.113 22.2115V71.408L96.7459 82.8747C96.9258 83.4038 97.0384 84.0233 97.0562 84.7452L134.67 73.2018L136.002 72.7927V20.8229L134.668 20.4158L134.666 20.4138Z" fill="white"/>
<path d="M84.1425 76.6576H81.3107C81.3107 76.6576 76.0759 70.7296 66.9896 70.7296C57.9033 70.7296 52.7238 76.6576 52.7238 76.6576H49.7715C49.7715 76.6576 55.8343 68.6191 66.956 68.6191C78.0777 68.6191 84.1405 76.6576 84.1405 76.6576" fill="white"/>
<path d="M83.5258 80.6778H80.5675C80.2711 80.6778 80.0478 80.3316 80.107 79.9599L80.0972 79.8124C80.1406 79.5311 80.3422 79.3974 80.5576 79.3305L83.672 78.6775C83.9684 78.6775 84.1917 79.0237 84.1324 79.3954L83.9862 80.1939C83.9427 80.4752 83.7491 80.6758 83.5258 80.6758" fill="white"/>
<path d="M44.3092 84.6311H45.159L48.473 79.8242C48.7022 79.476 49.0184 79.301 49.4235 79.301H52.2928C52.6565 79.301 52.7236 79.476 52.4944 79.8242L48.0679 85.8997L51.6051 92.2565C51.7929 92.5771 51.6862 92.7384 51.2811 92.7384H48.3109C47.9196 92.7384 47.6311 92.5712 47.4414 92.2349L44.8349 87.2254H43.9654L43.2974 92.1346C43.2441 92.5378 43.0208 92.7384 42.6295 92.7384H40.2641C39.8728 92.7384 39.7048 92.5378 39.7582 92.1346L41.5604 79.2813C41.5999 78.8781 41.8292 78.6775 42.2481 78.6775H44.5918C44.9693 78.6775 45.1313 78.8781 45.078 79.2813L44.3073 84.6331L44.3092 84.6311Z" fill="white"/>
<path d="M61.8021 86.2302C61.7745 86.4387 61.7448 86.6059 61.7112 86.7337C61.6776 86.8616 61.6401 86.9894 61.6006 87.1153C61.561 87.2431 61.5393 87.3139 61.5393 87.3257C61.4049 87.7014 61.1421 87.8883 60.7508 87.8883H55.7176C55.5832 88.8264 55.6978 89.4873 56.0614 89.8689C56.425 90.2504 56.9981 90.4412 57.7787 90.4412C58.6146 90.4412 59.3952 90.3409 60.1224 90.1403C60.3378 90.0734 60.4939 90.0695 60.5868 90.1305C60.6816 90.1914 60.7212 90.3291 60.7073 90.5435L60.6876 91.7708C60.6737 92.174 60.4445 92.4336 59.9999 92.5556C58.9229 92.8506 57.8973 92.9981 56.927 92.9981C53.8956 92.9981 52.3799 91.4699 52.3799 88.4114C52.3799 86.6413 52.8621 85.1524 53.8244 83.9467C54.7888 82.7391 56.1919 82.1353 58.0376 82.1353C59.3438 82.1353 60.3042 82.4539 60.9168 83.0911C61.5294 83.7284 61.8357 84.5623 61.8357 85.5949C61.8357 85.8093 61.8219 86.0198 61.7962 86.2282M56.5416 84.9813C56.259 85.3491 56.0911 85.7483 56.0357 86.1771H58.9466C59.0138 85.6677 58.9604 85.2488 58.7846 84.9203C58.6087 84.5918 58.2787 84.4266 57.7945 84.4266C57.2412 84.4266 56.8242 84.6115 56.5416 84.9793" fill="white"/>
<path d="M66.9872 88.2521H66.4615L65.9359 92.1346C65.8825 92.5378 65.6592 92.7384 65.2679 92.7384H63.0053C62.614 92.7384 62.4401 92.5378 62.4796 92.1346L64.2384 79.3207C64.2917 78.9056 64.521 78.6913 64.9261 78.6775H67.1749C67.3903 78.6637 67.5385 78.7031 67.6136 78.7916C67.6887 78.8781 67.7105 79.0296 67.6848 79.2439L66.7876 86.0197H67.333L70.0008 82.9023C70.2834 82.5797 70.6213 82.4204 71.0106 82.4204H73.4966C73.9017 82.4204 73.9472 82.5817 73.6389 82.9023L70.0008 87.0464L72.9709 92.2565C73.1863 92.5771 73.0915 92.7384 72.6883 92.7384H70.0601C69.6688 92.7384 69.3803 92.5771 69.1906 92.2565L66.9872 88.254V88.2521Z" fill="white"/>
<path d="M83.1263 86.2302C83.0987 86.4387 83.069 86.6059 83.0354 86.7337C83.0018 86.8616 82.9643 86.9894 82.9248 87.1153C82.8853 87.2431 82.8635 87.3139 82.8635 87.3257C82.7291 87.7014 82.4663 87.8883 82.075 87.8883H77.0418C76.9074 88.8264 77.022 89.4873 77.3857 89.8689C77.7493 90.2504 78.3223 90.4412 79.1029 90.4412C79.9388 90.4412 80.7194 90.3409 81.4466 90.1403C81.662 90.0734 81.8162 90.0695 81.911 90.1305C82.0059 90.1914 82.0454 90.3291 82.0316 90.5435L82.0118 91.7708C81.998 92.174 81.7687 92.4336 81.3241 92.5556C80.2471 92.8506 79.2215 92.9981 78.2512 92.9981C75.2198 92.9981 73.7041 91.4699 73.7041 88.4114C73.7041 86.6413 74.1863 85.1524 75.1487 83.9467C76.113 82.7391 77.5161 82.1353 79.3618 82.1353C80.668 82.1353 81.6284 82.4539 82.241 83.0911C82.8536 83.7284 83.1599 84.5623 83.1599 85.5949C83.1599 85.8093 83.1461 86.0198 83.1204 86.2282M77.8659 84.9813C77.5833 85.3491 77.4153 85.7483 77.36 86.1771H80.2708C80.338 85.6677 80.2846 85.2488 80.1088 84.9203C79.9329 84.5918 79.6029 84.4266 79.1187 84.4266C78.5654 84.4266 78.1484 84.6115 77.8659 84.9793" fill="white"/>
<path d="M85.0927 83.8877C85.146 83.4727 85.3693 83.1895 85.7606 83.042C87.4304 82.4126 89.0351 82.0959 90.5705 82.0959C91.8234 82.0959 92.7838 82.3575 93.4498 82.8807C94.1177 83.4039 94.3568 84.3755 94.1671 85.7975L93.2976 92.1347C93.2442 92.5379 93.0209 92.7385 92.6297 92.7385H90.446C90.0409 92.7385 89.867 92.5379 89.9204 92.1347L90.7701 86.0395C90.9045 85.06 90.5883 84.5702 89.8196 84.5702C89.2682 84.5702 88.7683 84.6705 88.3236 84.8731L87.3138 92.1347C87.2605 92.5379 87.0372 92.7385 86.6479 92.7385H84.4642C84.073 92.7385 83.8991 92.5379 83.9386 92.1347L85.0907 83.8877H85.0927Z" fill="white"/>
<path d="M94.8311 91.1059C94.9141 91.0902 95.0366 91.0784 95.1492 91.0784C95.3271 91.0784 95.4437 91.1118 95.5208 91.1826C95.584 91.2396 95.6215 91.3262 95.6215 91.4285C95.6215 91.5956 95.5148 91.7078 95.3804 91.753V91.7589C95.4773 91.7923 95.5366 91.8848 95.5682 92.0165C95.6097 92.1955 95.6413 92.3175 95.667 92.3686H95.4951C95.4733 92.3312 95.4457 92.2231 95.4101 92.0638C95.3725 91.8867 95.3014 91.8199 95.1512 91.8159H94.9951V92.3706H94.8291V91.1079L94.8311 91.1059ZM94.9971 91.6881H95.167C95.3449 91.6881 95.4575 91.5917 95.4575 91.4442C95.4575 91.279 95.337 91.2062 95.1611 91.2062C95.0801 91.2062 95.0247 91.2121 94.9971 91.22V91.6881Z" fill="white"/>
<path d="M95.2383 90.8778C95.7067 90.8778 96.088 91.2574 96.088 91.7235C96.088 92.1897 95.7067 92.5693 95.2383 92.5693C94.77 92.5693 94.3886 92.1897 94.3886 91.7235C94.3886 91.2574 94.77 90.8778 95.2383 90.8778ZM95.2383 90.7205C94.681 90.7205 94.2305 91.1709 94.2305 91.7235C94.2305 92.2762 94.681 92.7266 95.2383 92.7266C95.7956 92.7266 96.2461 92.2762 96.2461 91.7235C96.2461 91.1709 95.7956 90.7205 95.2383 90.7205Z" fill="white"/>
</g>
<defs>
<clipPath id="clip0_2066_137840">
<rect width="136" height="93" fill="white"/>
</clipPath>
</defs>
</svg>
