<svg width="32" height="33" viewBox="0 0 32 33" fill="none" xmlns="http://www.w3.org/2000/svg">
<path d="M16.0027 10.3467C12.5974 10.3467 9.85075 13.094 9.85075 16.5C9.85075 19.906 12.5974 22.6533 16.0027 22.6533C19.4079 22.6533 22.1546 19.906 22.1546 16.5C22.1546 13.094 19.4079 10.3467 16.0027 10.3467ZM16.0027 20.5004C13.8021 20.5004 12.0031 18.7064 12.0031 16.5C12.0031 14.2936 13.7968 12.4996 16.0027 12.4996C18.2086 12.4996 20.0022 14.2936 20.0022 16.5C20.0022 18.7064 18.2032 20.5004 16.0027 20.5004ZM23.8412 10.095C23.8412 10.8929 23.1987 11.5302 22.4062 11.5302C21.6085 11.5302 20.9713 10.8876 20.9713 10.095C20.9713 9.30241 21.6138 8.65977 22.4062 8.65977C23.1987 8.65977 23.8412 9.30241 23.8412 10.095ZM27.9157 11.5517C27.8247 9.62909 27.3856 7.92608 25.9775 6.52298C24.5747 5.11988 22.8721 4.68074 20.9499 4.58435C18.9689 4.47188 13.0311 4.47188 11.0501 4.58435C9.1333 4.67539 7.43067 5.11453 6.02253 6.51763C4.61439 7.92073 4.1807 9.62373 4.08433 11.5463C3.97189 13.5278 3.97189 19.4669 4.08433 21.4483C4.17535 23.3709 4.61439 25.0739 6.02253 26.477C7.43067 27.8801 9.12794 28.3193 11.0501 28.4157C13.0311 28.5281 18.9689 28.5281 20.9499 28.4157C22.8721 28.3246 24.5747 27.8855 25.9775 26.477C27.3803 25.0739 27.8193 23.3709 27.9157 21.4483C28.0281 19.4669 28.0281 13.5331 27.9157 11.5517ZM25.3564 23.5744C24.9388 24.6241 24.1303 25.4327 23.0755 25.8558C21.496 26.4824 17.7481 26.3378 16.0027 26.3378C14.2572 26.3378 10.504 26.477 8.92984 25.8558C7.88042 25.4381 7.07195 24.6294 6.64897 23.5744C6.02253 21.9946 6.16709 18.2458 6.16709 16.5C6.16709 14.7542 6.02789 11.0001 6.64897 9.42558C7.06659 8.37593 7.87507 7.56728 8.92984 7.1442C10.5093 6.51763 14.2572 6.66222 16.0027 6.66222C17.7481 6.66222 21.5014 6.52298 23.0755 7.1442C24.1249 7.56192 24.9334 8.37058 25.3564 9.42558C25.9828 11.0054 25.8383 14.7542 25.8383 16.5C25.8383 18.2458 25.9828 21.9999 25.3564 23.5744Z" fill="white"/>
</svg>
